<?xml version="1.0" standalone="no"?>
<!DOCTYPE svg PUBLIC "-//W3C//DTD SVG 20010904//EN"
 "http://www.w3.org/TR/2001/REC-SVG-20010904/DTD/svg10.dtd">
<svg version="1.0" xmlns="http://www.w3.org/2000/svg"
 width="859.000000pt" height="859.000000pt" viewBox="0 0 859.000000 859.000000"
 preserveAspectRatio="xMidYMid meet">

<g transform="translate(0.000000,859.000000) scale(0.100000,-0.100000)"
fill="#000000" stroke="none">
<path d="M3720 7570 c-387 -18 -974 -67 -1319 -111 -251 -32 -886 -127 -1041
-156 l-95 -18 -3 -143 -3 -142 -411 -2 -412 -3 208 -223 209 -223 -35 -37
c-19 -20 -94 -102 -168 -182 -74 -80 -152 -164 -174 -187 l-40 -43 602 0 601
0 3 123 3 122 185 22 c976 118 1485 152 2375 160 713 7 1120 -8 1715 -62 334
-30 1095 -118 1108 -128 8 -6 12 -45 12 -128 l0 -119 602 0 602 0 -45 48 c-25
26 -121 127 -213 225 l-168 177 104 113 c58 61 151 162 206 222 l101 110 -412
5 -412 5 -5 145 -5 145 -60 12 c-119 24 -544 93 -750 123 -436 61 -948 111
-1450 140 -238 14 -1180 21 -1415 10z m1540 -44 c611 -38 855 -67 1810 -216
140 -22 265 -42 278 -45 l22 -5 0 -471 c0 -443 -1 -470 -17 -465 -29 8 -499
73 -733 100 -445 53 -871 89 -1390 118 -302 17 -1490 17 -1790 0 -523 -30
-945 -65 -1390 -118 -234 -27 -704 -92 -732 -100 -17 -5 -18 21 -18 459 0 360
3 467 13 475 18 15 480 94 822 141 510 70 1160 127 1655 145 243 9 1230 -3
1470 -18z m-3998 -893 l3 -337 145 -80 144 -81 -256 -3 c-141 -1 -374 -1 -518
0 l-261 3 102 110 c55 61 141 153 189 205 l88 95 -124 135 c-69 74 -157 170
-195 213 l-71 77 376 0 376 0 2 -337z m6888 319 c0 -6 -198 -225 -341 -377
l-29 -31 195 -208 c107 -115 195 -212 195 -215 0 -3 -234 -6 -520 -6 -286 0
-520 3 -520 7 0 3 61 43 135 89 l135 82 0 327 c0 180 3 330 7 333 9 10 743 9
743 -1z m-6542 -710 c2 -63 -1 -92 -8 -92 -13 0 -213 110 -245 134 -15 12 -16
16 -5 16 8 1 65 9 125 20 61 10 115 17 120 16 6 -2 11 -44 13 -94z m5611 73
c98 -15 120 -20 110 -28 -8 -7 -243 -152 -251 -155 -4 -2 -8 44 -8 102 0 105
0 106 23 101 12 -3 69 -12 126 -20z"/>
<path d="M1588 7266 c-65 -18 -97 -41 -119 -89 -24 -53 -25 -146 -2 -194 22
-47 81 -88 146 -103 82 -19 87 -21 87 -35 0 -7 -7 -21 -16 -30 -21 -20 -55
-13 -105 21 -25 17 -49 24 -82 24 l-47 0 0 -74 c0 -48 4 -77 13 -84 46 -39
251 -55 344 -27 160 47 180 283 32 360 -14 8 -56 19 -92 26 -50 9 -67 17 -67
29 0 45 59 53 110 15 26 -19 46 -25 87 -25 l53 0 0 68 c0 37 -4 73 -9 80 -14
23 -139 52 -216 51 -38 0 -91 -6 -117 -13z"/>
<path d="M4420 7170 c0 -94 1 -100 21 -100 11 0 37 11 57 25 61 41 62 40 62
-104 0 -126 -1 -130 -25 -149 -23 -18 -25 -27 -25 -96 l0 -76 165 0 165 0 0
80 c0 77 -1 81 -25 90 -25 9 -25 10 -25 145 0 150 2 153 60 110 19 -14 44 -25
57 -25 22 0 23 2 23 100 l0 100 -255 0 -255 0 0 -100z"/>
<path d="M6989 7230 c-140 -24 -206 -142 -150 -266 23 -51 67 -79 157 -101 38
-9 71 -18 73 -19 2 -2 -4 -15 -13 -29 -20 -31 -58 -33 -93 -5 -18 14 -41 20
-77 20 l-51 0 2 -59 c0 -33 4 -65 8 -70 15 -25 117 -43 214 -39 158 6 212 46
219 163 5 77 -8 114 -53 154 -33 29 -105 51 -165 51 -34 0 -37 10 -14 45 20
30 52 32 86 6 15 -12 43 -20 77 -22 l52 -3 3 63 c2 57 0 64 -22 79 -28 18
-132 42 -177 41 -16 -1 -51 -5 -76 -9z"/>
<path d="M1990 7130 c0 -49 -1 -93 -2 -97 -7 -19 42 -12 68 10 16 13 39 27 52
31 22 7 22 7 22 -113 0 -118 -1 -121 -25 -137 -23 -15 -25 -23 -25 -85 l0 -69
155 0 155 0 0 76 c0 67 -2 76 -20 81 -19 5 -20 14 -20 129 l0 124 25 -10 c13
-5 34 -19 45 -30 12 -12 31 -20 43 -18 21 3 22 9 25 101 l3 97 -250 0 -251 0
0 -90z"/>
<path d="M2540 7146 c0 -63 3 -75 21 -87 18 -13 21 -26 23 -113 3 -94 2 -101
-21 -122 -20 -18 -23 -31 -23 -88 l0 -66 230 0 230 0 0 100 c0 55 -1 100 -3
100 -2 0 -41 -11 -88 -25 -46 -13 -87 -25 -91 -25 -5 0 -8 21 -8 46 l0 46 33
-7 c17 -4 40 -9 50 -11 15 -5 17 2 17 51 0 45 -3 56 -14 52 -8 -3 -31 -9 -50
-13 l-36 -6 0 46 c0 25 1 46 3 46 2 0 41 -11 87 -25 46 -14 87 -25 92 -25 4 0
8 45 8 100 l0 100 -230 0 -230 0 0 -74z"/>
<path d="M3060 7150 c0 -58 4 -73 23 -92 20 -21 22 -30 19 -125 -3 -91 -5
-103 -23 -108 -16 -6 -19 -16 -19 -81 l0 -74 225 0 225 0 0 100 c0 55 -1 100
-2 100 -2 0 -39 -11 -83 -25 -44 -14 -83 -25 -87 -25 -5 0 -8 20 -8 45 0 25 3
45 8 45 4 0 24 -4 45 -9 l37 -9 0 53 0 53 -37 -9 c-21 -5 -41 -9 -45 -9 -5 0
-8 20 -8 45 0 25 1 45 3 45 1 0 38 -11 82 -25 44 -14 83 -25 88 -25 4 0 7 45
7 100 l0 100 -225 0 -225 0 0 -70z"/>
<path d="M3580 7149 c0 -63 3 -76 20 -87 18 -11 20 -23 20 -120 0 -96 -2 -108
-20 -120 -17 -10 -20 -23 -20 -82 l0 -70 155 0 155 0 0 69 c0 60 -3 72 -22 85
-12 9 -22 24 -23 34 -1 17 8 20 64 26 97 9 183 34 210 60 45 45 45 174 -1 223
-33 35 -74 42 -315 49 l-223 7 0 -74z m313 -30 c30 -16 37 -28 37 -70 0 -42
-27 -72 -62 -67 -21 3 -23 8 -26 76 -3 78 3 86 51 61z"/>
<path d="M4960 7151 c0 -68 1 -69 33 -89 31 -18 167 -198 167 -220 0 -6 -7
-12 -15 -16 -11 -4 -15 -23 -15 -81 l0 -75 165 0 165 0 0 76 c0 67 -2 76 -20
81 -11 3 -20 8 -20 10 0 19 139 199 166 215 34 20 34 21 34 94 l0 74 -145 0
-145 0 0 -62 c0 -35 6 -75 14 -89 13 -25 11 -31 -16 -73 -17 -25 -33 -46 -37
-46 -3 0 -19 23 -34 51 -27 46 -28 52 -13 68 11 12 16 37 16 84 l0 67 -150 0
-150 0 0 -69z"/>
<path d="M5670 7146 c0 -42 4 -76 9 -76 5 0 17 -7 25 -16 12 -12 16 -38 16
-114 0 -93 -1 -98 -25 -114 -23 -15 -25 -23 -25 -86 l0 -70 135 0 134 0 3 98
3 97 34 -85 c19 -47 39 -91 44 -97 6 -9 43 -13 120 -13 l110 0 -6 46 c-2 26
-14 58 -26 73 -11 14 -34 45 -51 67 l-29 42 40 27 c51 33 73 82 66 148 -5 59
-30 95 -83 122 -35 18 -63 20 -266 23 l-228 4 0 -76z m328 -42 c17 -12 22 -25
22 -59 0 -49 -19 -75 -56 -75 -23 0 -24 3 -24 69 0 64 5 76 30 80 3 1 16 -6
28 -15z"/>
<path d="M6318 7145 c-2 -41 0 -75 4 -75 4 0 14 -7 22 -16 12 -12 16 -38 16
-114 0 -95 -1 -100 -25 -116 -23 -15 -25 -23 -25 -85 l0 -69 230 0 230 0 0
100 c0 55 -1 100 -3 100 -2 0 -41 -11 -87 -25 -46 -14 -87 -25 -92 -25 -4 0
-8 21 -8 46 l0 46 33 -7 c17 -4 40 -9 50 -11 15 -5 17 2 17 49 l0 55 -37 -9
c-61 -14 -63 -13 -63 36 0 25 1 45 3 45 2 0 41 -11 88 -25 46 -13 87 -25 92
-25 4 0 7 45 7 100 l0 100 -224 0 -224 0 -4 -75z"/>
<path d="M3885 6164 c-88 -6 -179 -13 -202 -13 -24 -1 -43 -5 -43 -11 0 -5 47
-11 108 -12 l107 -3 -41 -22 c-41 -22 -113 -34 -314 -54 -90 -8 -124 -16 -157
-35 -23 -13 -44 -28 -47 -32 -2 -4 75 0 172 9 98 9 178 16 179 15 1 -1 -24
-26 -57 -54 -67 -59 -79 -63 -292 -83 l-128 -12 -41 -54 c-23 -29 -40 -55 -38
-57 2 -2 73 3 158 10 85 8 156 13 158 10 10 -10 -82 -136 -106 -144 -14 -6
-86 -15 -159 -21 -74 -6 -138 -13 -143 -17 -12 -7 -59 -99 -59 -115 0 -8 37
-9 138 -4 75 4 142 8 147 9 6 0 9 -3 8 -9 -6 -25 -56 -141 -67 -152 -7 -8 -65
-17 -146 -24 -83 -7 -140 -16 -149 -24 -13 -13 -54 -145 -47 -153 2 -2 66 0
141 5 75 4 138 7 140 5 3 -3 -41 -181 -47 -187 -2 -2 -63 -8 -136 -13 -73 -5
-136 -13 -140 -16 -3 -4 -11 -52 -17 -106 l-11 -100 138 0 138 0 -6 -62 c-10
-119 4 -108 -144 -108 l-130 0 0 -137 0 -138 132 0 133 0 3 -57 3 -58 -134 0
-134 0 18 -116 c9 -64 23 -123 31 -130 8 -8 61 -18 131 -25 106 -11 120 -14
137 -37 11 -14 20 -38 20 -55 l0 -30 -62 6 c-35 4 -98 9 -140 13 l-78 7 14
-44 c7 -24 25 -84 40 -132 15 -49 33 -90 39 -93 7 -2 70 -10 140 -17 131 -14
152 -22 159 -62 3 -22 -2 -22 -162 -5 -47 6 -92 10 -101 10 -26 0 98 -226 131
-239 14 -6 70 -15 125 -21 112 -12 155 -25 155 -47 0 -11 -8 -13 -27 -9 -63
12 -224 28 -230 23 -11 -12 157 -185 185 -191 15 -3 70 -12 123 -21 106 -16
153 -30 145 -43 -3 -5 -55 -2 -116 8 -60 9 -110 14 -110 11 0 -12 100 -73 157
-96 33 -14 91 -31 129 -39 75 -16 323 -41 330 -33 3 2 -17 20 -43 40 -246 181
-440 554 -548 1049 -42 198 -58 354 -58 588 1 546 127 1009 375 1371 110 162
239 278 396 356 l87 43 -50 -2 c-27 0 -122 -7 -210 -14z"/>
<path d="M4189 6160 c-98 -29 -225 -115 -334 -224 -231 -232 -393 -587 -474
-1042 -79 -445 -40 -958 105 -1387 51 -151 149 -357 222 -467 104 -157 234
-280 319 -306 97 -28 102 -16 21 48 -75 59 -137 124 -200 213 -161 225 -307
638 -365 1030 -21 150 -24 558 -5 715 88 712 405 1266 807 1411 l50 18 -60 0
c-33 0 -72 -4 -86 -9z"/>
<path d="M4409 6147 c-103 -35 -176 -84 -284 -192 -208 -206 -347 -477 -445
-867 -48 -189 -71 -360 -77 -579 -10 -361 41 -707 152 -1029 41 -118 143 -336
198 -421 93 -145 211 -264 311 -314 47 -24 59 -25 215 -25 235 0 661 34 743
60 128 39 225 122 323 273 352 545 435 1601 185 2357 -39 119 -124 298 -180
381 -102 149 -289 309 -387 329 -56 12 -540 50 -628 50 -35 0 -87 -10 -126
-23z m433 -33 c95 -8 174 -17 176 -19 2 -1 -33 -15 -76 -29 l-80 -27 -181 18
c-100 9 -181 20 -181 24 0 4 15 16 33 28 40 26 79 26 309 5z m-227 -125 c72
-6 132 -13 134 -15 7 -6 -70 -114 -82 -114 -29 0 -353 33 -356 37 -3 2 19 28
49 58 49 50 57 54 89 50 20 -3 95 -10 166 -16z m-191 -234 c87 -8 160 -16 163
-18 6 -7 -68 -138 -81 -143 -14 -5 -345 22 -352 29 -6 6 30 79 58 120 22 31 8
30 212 12z m767 -85 c187 -124 319 -565 336 -1125 12 -407 -37 -769 -139
-1042 -44 -117 -90 -192 -154 -253 -104 -99 -201 -77 -309 70 -103 140 -181
385 -219 688 -22 173 -23 164 22 156 20 -4 55 -16 77 -28 31 -16 58 -21 120
-21 124 0 130 3 132 72 1 32 2 84 2 115 0 32 5 67 11 78 13 24 -8 150 -25 150
-6 0 -23 -25 -38 -55 -15 -30 -34 -55 -42 -55 -20 0 -19 19 3 43 13 15 17 37
17 111 0 79 3 97 25 135 40 72 71 61 34 -11 -33 -65 -35 -88 -9 -114 29 -29
39 -30 64 -5 22 22 55 162 47 197 -7 28 -65 60 -125 70 -93 15 -175 -34 -241
-144 -21 -37 -53 -83 -69 -102 l-30 -35 -1 43 c-1 160 52 516 100 667 52 163
135 321 196 377 64 57 146 64 215 18z m-764 -216 l31 -6 -24 -71 c-37 -111
-17 -102 -220 -88 -98 6 -180 13 -181 15 -4 3 43 141 53 157 7 12 266 6 341
-7z m-69 -349 c6 -6 -31 -171 -41 -181 -9 -8 -62 -9 -186 -2 -96 5 -177 10
-179 12 -4 4 26 175 33 186 3 5 367 -9 373 -15z m-62 -442 c-3 -21 -6 -57 -6
-80 l0 -43 -191 0 -191 0 6 31 c3 17 6 53 6 80 l0 49 191 0 192 0 -7 -37z m-8
-465 l-3 -53 -180 0 -180 0 -3 53 -3 52 186 0 186 0 -3 -52z m36 -350 c3 -13
6 -35 6 -49 l0 -26 -166 -12 c-120 -9 -169 -9 -179 -1 -16 14 -25 81 -11 86
13 4 222 21 292 23 46 1 52 -2 58 -21z m80 -384 c4 -15 6 -28 4 -29 -5 -5
-233 -25 -284 -25 -39 0 -52 4 -62 21 -7 12 -11 24 -8 27 7 6 223 29 297 31
43 1 47 -1 53 -25z m106 -299 c17 -20 13 -21 -159 -39 -103 -11 -149 -12 -163
-5 -35 19 -6 30 113 43 159 19 194 19 209 1z m115 -245 c16 -6 17 -9 5 -14
-56 -21 -280 -35 -280 -17 0 5 30 14 68 20 135 21 177 24 207 11z"/>
<path d="M5064 5228 c-53 -57 -75 -148 -54 -214 7 -22 39 -66 70 -99 31 -33
70 -82 85 -108 23 -40 32 -48 49 -43 12 3 29 6 39 6 14 0 17 9 17 44 0 39 6
52 50 101 59 68 74 108 68 186 -3 47 -10 66 -34 96 -46 56 -51 53 -56 -33 -3
-71 -6 -78 -36 -105 -34 -30 -63 -36 -106 -19 -40 15 -60 55 -66 137 l-5 75
-21 -24z"/>
<path d="M5235 4733 c-42 -10 -60 -39 -80 -126 l-6 -29 53 7 c79 10 124 23
138 40 17 20 15 74 -2 90 -15 15 -74 25 -103 18z"/>
<path d="M5200 4549 c-82 -15 -91 -19 -99 -42 -10 -28 5 -74 27 -81 24 -8 190
20 208 35 20 16 18 63 -4 82 -20 18 -60 20 -132 6z"/>
<path d="M5170 4388 c-66 -12 -80 -22 -80 -58 0 -48 19 -55 118 -40 48 7 97
16 108 21 25 9 34 36 23 67 -7 19 -15 22 -61 21 -29 -1 -78 -6 -108 -11z"/>
<path d="M5162 4246 c-82 -17 -100 -41 -64 -87 19 -22 20 -22 111 -9 112 16
141 34 126 76 -9 26 -15 29 -60 31 -28 1 -79 -4 -113 -11z"/>
<path d="M5199 4113 c-32 -4 -38 -8 -43 -34 -3 -17 -22 -44 -42 -62 -20 -18
-44 -49 -55 -69 -23 -46 -25 -134 -4 -186 16 -38 52 -82 67 -82 4 0 8 29 8 64
0 36 4 76 10 90 13 34 55 60 97 59 64 -2 103 -62 103 -160 l1 -58 34 37 c57
61 68 153 28 232 -8 17 -37 52 -64 77 -35 32 -49 53 -49 72 0 29 -2 29 -91 20z"/>
<path d="M1202 2449 c-112 -19 -173 -65 -218 -161 -27 -58 -29 -72 -29 -183 0
-109 2 -125 27 -177 54 -116 158 -180 293 -180 71 -1 188 23 212 43 14 12 20
199 6 199 -3 0 -45 -7 -91 -16 -100 -18 -136 -14 -174 23 -72 69 -51 208 37
250 38 18 55 13 108 -29 19 -15 42 -23 77 -24 l50 -1 0 102 c0 70 -4 106 -12
113 -40 32 -202 56 -286 41z"/>
<path d="M3227 2438 c-119 -33 -175 -219 -103 -341 28 -49 91 -88 174 -107 55
-13 61 -22 36 -58 -21 -30 -48 -28 -92 7 -35 28 -66 36 -119 33 -22 -2 -23 -6
-23 -86 0 -55 4 -87 13 -94 24 -20 131 -44 201 -45 188 -2 276 70 276 228 0
73 -17 121 -57 166 -36 40 -105 69 -165 69 -36 0 -45 22 -24 55 22 33 45 32
91 -5 31 -25 47 -30 91 -30 l54 0 0 79 c0 90 -8 103 -68 122 -50 16 -238 20
-285 7z"/>
<path d="M6115 2400 c-166 -25 -240 -124 -240 -320 0 -121 22 -186 85 -252 61
-63 128 -83 254 -75 50 3 109 12 131 20 l40 14 3 96 3 97 -28 -11 c-15 -6 -68
-13 -118 -16 -87 -5 -91 -5 -114 21 -33 35 -42 134 -17 181 17 32 62 65 88 65
7 0 33 -14 57 -30 32 -22 56 -30 88 -30 l43 0 0 95 c0 87 -2 96 -22 109 -48
31 -172 48 -253 36z"/>
<path d="M7159 2400 c-107 -18 -162 -75 -175 -181 -13 -115 41 -202 146 -233
29 -9 62 -16 72 -16 20 0 24 -30 8 -61 -15 -27 -49 -24 -81 7 -21 20 -42 28
-79 32 l-50 5 0 -82 0 -82 33 -14 c67 -28 161 -38 236 -25 86 14 129 41 159
100 20 39 23 56 19 123 -7 131 -45 164 -234 203 -22 4 -22 5 -6 39 20 41 34
43 92 10 28 -16 58 -25 87 -25 l44 0 0 75 c0 89 -8 97 -116 120 -75 16 -87 16
-155 5z"/>
<path d="M1713 2378 c-6 -7 -29 -89 -53 -183 -45 -181 -52 -198 -82 -231 -16
-18 -18 -34 -16 -115 l3 -94 85 -3 c47 -1 91 2 99 7 8 5 17 29 20 53 l6 43 78
3 c58 2 77 0 77 -10 0 -7 5 -30 11 -50 l10 -38 99 0 100 0 0 88 c0 81 -2 91
-29 128 -21 29 -39 82 -71 214 -24 96 -47 181 -53 188 -7 8 -48 12 -142 12
-94 0 -135 -4 -142 -12z m166 -248 c29 -132 29 -130 -22 -130 -24 0 -46 2 -49
5 -5 5 26 179 38 214 7 22 12 11 33 -89z"/>
<path d="M2210 2301 c0 -81 2 -90 20 -96 19 -6 20 -15 20 -131 0 -113 -2 -125
-20 -136 -17 -11 -20 -24 -20 -95 l0 -83 135 0 134 0 3 103 3 102 40 -99 c29
-74 45 -100 63 -107 13 -5 64 -9 114 -9 l90 0 -4 63 c-4 54 -11 71 -51 130
-26 38 -47 72 -47 76 0 4 14 15 31 25 51 30 69 71 69 156 0 89 -21 133 -74
155 -40 17 -246 35 -397 35 l-109 0 0 -89z m344 -63 c36 -51 9 -128 -45 -128
l-29 0 0 75 0 75 29 0 c20 0 35 -8 45 -22z"/>
<path d="M3660 2299 c0 -82 2 -91 20 -96 19 -5 20 -14 20 -129 0 -113 -2 -124
-20 -134 -18 -9 -20 -21 -20 -95 l0 -85 230 0 230 0 0 115 c0 63 -2 115 -4
115 -3 0 -43 -13 -89 -30 -47 -16 -88 -30 -91 -30 -3 0 -6 23 -6 51 l0 51 36
-6 c19 -4 42 -10 50 -13 11 -4 14 7 14 57 l0 62 -32 -7 c-18 -4 -41 -9 -50
-11 -16 -5 -18 2 -18 45 0 28 4 51 8 51 5 0 42 -11 82 -25 40 -14 80 -25 87
-25 11 0 13 23 11 113 l-3 112 -227 2 -228 2 0 -90z"/>
<path d="M4190 2301 c0 -75 3 -88 20 -99 18 -11 20 -23 20 -127 0 -102 -2
-117 -20 -135 -17 -17 -20 -33 -20 -100 l0 -80 130 0 130 0 0 100 c0 55 3 100
8 100 4 0 23 -41 42 -91 21 -54 44 -97 56 -106 16 -10 47 -13 115 -11 l94 3 0
56 c0 49 -5 63 -48 125 -26 38 -47 74 -47 81 0 6 15 21 34 32 51 32 69 80 63
164 -5 82 -24 113 -88 144 -40 19 -64 22 -266 26 l-223 4 0 -86z m340 -57 c8
-8 13 -36 13 -61 0 -50 -18 -73 -60 -73 -22 0 -23 3 -23 75 l0 75 29 0 c16 0
34 -7 41 -16z"/>
<path d="M4810 2308 c0 -80 1 -84 29 -108 25 -21 39 -55 86 -205 31 -99 62
-195 70 -212 l15 -33 119 0 c83 0 122 4 128 13 6 6 17 35 26 62 123 391 117
375 143 381 23 6 24 9 24 95 l0 90 -132 -3 -133 -3 -3 -55 c-3 -55 14 -140 28
-140 8 0 -38 -200 -49 -213 -4 -4 -19 42 -34 101 l-27 109 20 38 c21 42 26 99
11 138 l-10 25 -155 1 -156 2 0 -83z"/>
<path d="M6470 2387 c0 -1 -2 -33 -4 -72 -3 -78 6 -115 29 -115 13 0 15 -20
15 -125 0 -114 -2 -125 -20 -135 -18 -9 -20 -21 -20 -95 l0 -85 230 0 230 0 0
115 c0 63 -1 115 -3 115 -2 0 -43 -13 -92 -30 -49 -16 -90 -30 -92 -30 -2 0
-3 23 -3 51 l0 51 36 -6 c19 -4 42 -10 50 -13 11 -4 14 7 14 57 l0 62 -36 -6
c-19 -4 -42 -10 -50 -13 -11 -4 -14 6 -14 46 0 28 1 51 3 51 2 0 41 -11 87
-25 46 -14 87 -25 92 -25 5 0 7 51 6 113 l-3 112 -227 2 c-126 1 -228 1 -228
0z"/>
<path d="M5500 2296 c0 -76 2 -85 20 -91 19 -6 20 -15 20 -131 0 -113 -2 -125
-20 -136 -17 -11 -20 -24 -20 -95 l0 -83 155 0 155 0 0 79 c0 63 -4 83 -20
104 -17 22 -20 40 -20 140 0 107 2 116 20 122 18 6 20 15 20 91 l0 84 -155 0
-155 0 0 -84z"/>
<path d="M5680 356 l0 -216 -1344 0 -1344 0 -277 190 -277 190 -885 -2 -886
-3 99 -67 c54 -36 224 -152 377 -257 l278 -191 2956 2 2956 3 -399 137 c-220
75 -585 200 -813 278 -228 78 -421 144 -428 147 -10 4 -13 -37 -13 -211z"/>
</g>
</svg>
